<svg xmlns="http://www.w3.org/2000/svg" xmlns:xlink="http://www.w3.org/1999/xlink" viewBox="0 0 512 512"><defs><style>.cls-1{fill:none;stroke:#000;stroke-miterlimit:10;stroke-width:0.25px;}.cls-2{clip-path:url(#clip-path);}.cls-3{fill:url(#New_Gradient_Swatch_1);}</style><clipPath id="clip-path"><path class="cls-1" d="M285.65,78.19H275.49V68h10.16Zm-61.38,2.15H214.11V90.5h10.16ZM150.62,92.65H140.46v10.16h10.16Zm36.82,0H177.29v10.16h10.15Zm98.21,10.16V92.65H275.49v10.16ZM359.3,92.65H349.14v10.16H359.3ZM224.27,105H214.11v10.16h10.16Zm61.38,0H275.49v10.16h10.16ZM126.07,117.27H115.91v10.16h10.16Zm61.37,0H177.29v10.16h10.15ZM212,127.43V117.27H201.84v10.16ZM359.3,117.27H349.14v10.16H359.3Zm36.82,0H386v10.16h10.16ZM212,129.58H201.84v10.15H212Zm12.28,0H214.11v10.15h10.16Zm36.83,0H250.94v10.15H261.1Zm24.55,0H275.49v10.15h10.16Zm49.1,10.15V129.58H324.59v10.15Zm-184.13,2.16H140.46V152h10.16Zm36.82,0H177.29V152h10.15Zm36.83,0H214.11V152h10.16Zm61.38,0H275.49V152h10.16Zm49.1,0H324.59V152h10.16Zm24.55,0H349.14V152H359.3Zm36.82,0H386V152h10.16Zm-270,22.46V154.19H115.91v10.16Zm26.67-10.16v10.16h10.15V154.19Zm24.55,10.16h10.15V154.19H177.29Zm47-10.16H214.11v10.16h10.16Zm36.83,0H250.94v10.16H261.1Zm24.55,0H275.49v10.16h10.16Zm36.82,0H312.31v10.16h10.16Zm36.83,0H349.14v10.16H359.3ZM126.07,166.5H115.91v10.16h10.16Zm24.55,0H140.46v10.16h10.16Zm26.67,10.16h10.15V166.5H177.29ZM212,166.5H201.84v10.16H212Zm12.28,0H214.11v10.16h10.16Zm49.1,0H263.21v10.16h10.16Zm12.28,0H275.49v10.16h10.16Zm2.11,0v10.16h10.16V166.5Zm47,0H324.59v10.16h10.16Zm24.55,0H349.14v10.16H359.3Zm36.82,0H386v10.16h10.16Zm-245.5,12.31H140.46V189h10.16ZM177.29,189h10.15V178.81H177.29ZM212,178.81H201.84V189H212Zm12.28,0H214.11V189h10.16Zm12.27,0H226.39V189h10.15Zm36.83,0H263.21V189h10.16Zm12.28,0H275.49V189h10.16Zm36.82,0H312.31V189h10.16Zm12.28,0H324.59V189h10.16Zm24.55,0H349.14V189H359.3Zm36.82,0H386V189h10.16Zm-270,12.31H115.91v10.16h10.16Zm24.55,0H140.46v10.16h10.16Zm12.27,0H152.74v10.16h10.15Zm14.4,10.16h10.15V191.12H177.29Zm12.27,0h10.16V191.12H189.56ZM212,191.12H201.84v10.16H212Zm12.28,0H214.11v10.16h10.16Zm12.27,0H226.39v10.16h10.15Zm24.56,0H250.94v10.16H261.1Zm12.27,0H263.21v10.16h10.16Zm12.28,0H275.49v10.16h10.16Zm12.27,0H287.76v10.16h10.16Zm36.83,0H324.59v10.16h10.16Zm12.27,0H336.86v10.16H347Zm12.28,0H349.14v10.16H359.3Zm12.27,0H361.41v10.16h10.16Zm24.55,0H386v10.16h10.16Zm-270,12.31H115.91v10.15h10.16Zm24.55,0H140.46v10.15h10.16Zm12.27,0H152.74v10.15h10.15Zm12.28,0H165v10.15h10.16Zm2.12,10.15h10.15V203.43H177.29Zm22.43-10.15H189.56v10.15h10.16Zm2.12,10.15H212V203.43H201.84Zm22.43-10.15H214.11v10.15h10.16Zm12.27,0H226.39v10.15h10.15Zm12.28,0H238.66v10.15h10.16Zm2.12,10.15H261.1V203.43H250.94Zm12.27,0h10.16V203.43H263.21Zm12.28,0h10.16V203.43H275.49Zm22.43-10.15H287.76v10.15h10.16Zm24.55,0H312.31v10.15h10.16Zm12.28,0H324.59v10.15h10.16Zm12.27,0H336.86v10.15H347Zm2.12,10.15H359.3V203.43H349.14Zm22.43-10.15H361.41v10.15h10.16Zm12.28,0H373.69v10.15h10.16ZM386,213.58h10.16V203.43H386Zm-259.89,2.15H115.91v10.16h10.16Zm12.27,0H128.19v10.16h10.15Zm12.28,0H140.46v10.16h10.16Zm12.27,0H152.74v10.16h10.15ZM165,225.89h10.16V215.73H165Zm12.28,0h10.15V215.73H177.29Zm12.27,0h10.16V215.73H189.56ZM212,215.73H201.84v10.16H212Zm2.12,10.16h10.16V215.73H214.11Zm12.28,0h10.15V215.73H226.39Zm12.27,0h10.16V215.73H238.66Zm22.44-10.16H250.94v10.16H261.1Zm12.27,0H263.21v10.16h10.16Zm12.28,0H275.49v10.16h10.16Zm2.11,10.16h10.16V215.73H287.76Zm22.44,0V215.73H300v10.16Zm2.11,0h10.16V215.73H312.31Zm12.28,0h10.16V215.73H324.59Zm12.27,0H347V215.73H336.86Zm22.44-10.16H349.14v10.16H359.3Zm2.11,10.16h10.16V215.73H361.41Zm12.28,0h10.16V215.73H373.69Zm22.43-10.16H386v10.16h10.16Zm2.12,0v10.16h5c.46-3.38.84-6.77,1.22-10.16ZM113.79,238.2V228h-4.68c.47,3.46,1,6.84,1.52,10.16ZM126.07,228H115.91V238.2h10.16Zm12.27,0H128.19V238.2h10.15Zm12.28,0H140.46V238.2h10.16Zm12.27,0H152.74V238.2h10.15ZM165,238.2h7.6c-.53-4.68-.75-8.23-.84-10.16H165Zm-51.22,12.31V240.35H111q.87,5.21,1.84,10.16Zm12.28-10.16H115.91v10.16h10.16Zm12.27,0H128.19v10.16h10.15Zm12.28,0H140.46v10.16h10.16Zm12.27,0H152.74v10.16h10.15ZM165,250.51h9.45c-.69-3.73-1.21-7.15-1.59-10.16H165Zm-51.22,2.15h-.54c.18.9.36,1.81.54,2.7Zm2.12,10.16h10.16V252.66H115.91Zm22.43-10.16H128.19v10.16h10.15Zm12.28,0H140.46v10.16h10.16Zm12.27,0H152.74v10.16h10.15Zm12.28,1.62c-.12-.56-.2-1.07-.31-1.62H165v10.16h10.16Zm45.62,8.54h3.48v-3.56h-4.06C220.35,260.46,220.61,261.62,220.79,262.82Zm15.75,0v-3.56H226.39v3.56Zm12.28,0v-3.56H238.66v3.56Zm12.28,0v-3.56H250.94v3.56Zm12.27,0v-3.56H263.21v3.56Zm12.28,0v-3.56H275.49v3.56Zm12.27,0v-3.56H287.76v3.56Zm2.12,0H310.2v-3.56H300Zm22.43-3.56H312.31v3.56h10.16Zm12.28,0H324.59v3.56h10.16Zm12.27,0H336.86v3.56H347Zm12.28,0H349.14v3.56H359.3Zm12.27,0H361.41v3.56h10.16Zm12.28,0H373.69v3.56h10.16Zm12.27,0H386v3.56h10.16Zm2.12,3.56h.1c.28-1.19.58-2.37.84-3.56h-.94Zm-272.17,12.3V265H116c.83,3.48,1.68,6.88,2.57,10.15ZM138.34,265H128.19v10.15h10.15Zm12.28,0H140.46v10.15h10.16Zm12.27,0H152.74v10.15h10.15Zm12.28,0H165v10.15h10.16Zm2.12,10.15h3.36c-1.13-3.48-2.13-6.88-3-10.15h-.37Zm47,0V265h-3.13a93,93,0,0,0,2.32,10.15ZM236.54,265H226.39v10.15h10.15Zm12.28,0H238.66v10.15h10.16Zm12.28,0H250.94v10.15H261.1Zm12.27,0H263.21v10.15h10.16Zm12.28,0H275.49v10.15h10.16Zm12.27,0H287.76v10.15h10.16ZM300,275.12H310.2V265H300ZM322.47,265H312.31v10.15h10.16Zm12.28,0H324.59v10.15h10.16ZM347,265H336.86v10.15H347Zm12.28,0H349.14v10.15H359.3Zm12.27,0H361.41v10.15h10.16Zm12.28,0H373.69v10.15h10.16Zm12.27,0H386v10.15h9.19c.33-1.17.65-2.35,1-3.53Zm-270,12.31h-6.94c1,3.5,2,6.9,3,10.15h3.92Zm12.27,0H128.19v10.15h10.15Zm12.28,0H140.46v10.15h10.16Zm12.27,0H152.74v10.15h10.15Zm12.28,0H165v10.15h10.16Zm2.12,10.15h7.82q-2.09-5.16-3.76-10.15h-4.06Zm47-10.15H224l.25.69Zm2.12,6.48c.49,1.24,1,2.46,1.52,3.67h8.63V277.28H226.39Zm12.27,3.67h10.16V277.28H238.66Zm12.28,0H261.1V277.28H250.94Zm12.27,0h10.16V277.28H263.21Zm12.28,0h10.16V277.28H275.49Zm12.27,0h10.16V277.28H287.76Zm22.44-10.15H300v10.15H310.2Zm12.27,0H312.31v10.15h10.16Zm12.28,0H324.59v10.15h10.16Zm12.27,0H336.86v10.15H347Zm12.28,0H349.14v10.15H359.3Zm12.27,0H361.41v10.15h10.16Zm12.28,0H373.69v10.15h10.16Zm2.11,0v10.15h5.32q1.71-5,3.22-10.15Zm-259.89,12.3h-3.22c1.05,3.23,2.13,6.34,3.22,9.3Zm2.12,10.16h10.15V289.58H128.19Zm22.43-10.16H140.46v10.16h10.16Zm12.27,0H152.74v10.16h10.15Zm12.28,0H165v10.16h10.16ZM187.44,293c-.5-1.14-1-2.26-1.44-3.39h-8.71v10.16h10.15Zm3.22,6.77-.28-.5c-.29-.58-.54-1.16-.82-1.75v2.25Zm45.88-10.16h-7.61a92.44,92.44,0,0,0,5.55,10.16h2.06Zm2.12,10.16h10.16V289.58H238.66Zm12.28,0H261.1V289.58H250.94Zm12.27,0h10.16V289.58H263.21Zm12.28,0h10.16V289.58H275.49Zm12.27,0h10.16V289.58H287.76Zm12.28,0H310.2V289.58H300Zm22.43-10.16H312.31v10.16h10.16Zm12.28,0H324.59v10.16h10.16Zm12.27,0H336.86v10.16H347Zm12.28,0H349.14v10.16H359.3Zm12.27,0H361.41v10.16h10.16Zm12.28,0H373.69v10.16h10.16Zm2.11,0v10.16h.79q2-5,3.79-10.16ZM138.34,312.05V301.89H128.19v2.52c1.05,2.67,2.12,5.22,3.19,7.64Zm12.28-10.16H140.46v10.16h10.16Zm12.27,0H152.74v10.16h10.15Zm12.28,0H165v10.16h10.16Zm12.27,0H177.29v10.16h10.15Zm2.12,10.16h8.24c-2.05-3.25-4-6.66-6-10.16h-2.29Zm46.31-10.16c.21.32.45.62.67.93v-.93Zm2.79,3.84c1.69,2.23,3.44,4.33,5.28,6.32h4.88V301.89H238.66Zm12.28,6.32H261.1V301.89H250.94Zm12.27,0h10.16V301.89H263.21Zm12.28,0h10.16V301.89H275.49Zm12.27,0h10.16V301.89H287.76Zm12.28,0H310.2V301.89H300Zm22.43-10.16H312.31v10.16h10.16Zm12.28,0H324.59v10.16h10.16Zm12.27,0H336.86v10.16H347Zm12.28,0H349.14v10.16H359.3Zm12.27,0H361.41v10.16h10.16Zm12.28,0H373.69v10.16h7.87q1.17-2.58,2.29-5.21ZM138.34,314.2h-6c.85,1.86,1.71,3.68,2.56,5.38s1.66,3.19,2.5,4.78h.92Zm2.12,10.16h10.16V314.2H140.46Zm22.43-10.16H152.74v10.16h10.15Zm12.28,0H165v10.16h10.16Zm12.27,0H177.29v10.16h10.15Zm12.28.76c-.17-.25-.34-.5-.5-.76h-9.66v10.16h10.16Zm6.59,9.4c-1.51-2-3-4.07-4.47-6.2v6.2Zm39.61-10.16c.94.95,1.93,1.79,2.9,2.67V314.2Zm5,0v4.63c.11.09.21.21.33.3h9.83V314.2Zm12.27,0v4.93h10.16V314.2Zm12.28,0v4.93h10.16V314.2Zm12.27,0v4.93h10.16V314.2Zm22.44,8c-.48.72-.94,1.43-1.43,2.14h1.43ZM300,319.13H310.2V314.2H300Zm22.43-4.93H312.31v10.16h10.16Zm12.28,0H324.59v10.16h10.16Zm12.27,0H336.86v10.16H347Zm12.28,0H349.14v10.16H359.3Zm12.27,0H361.41v10.16h10.16Zm2.12,0v10.16h2q2.52-5,4.93-10.16ZM144.24,336.67h6.38V326.51H140.46V330C141.69,332.25,142.94,334.47,144.24,336.67Zm18.65-10.16H152.74v10.16h10.15Zm12.28,0H165v10.16h10.16Zm12.27,0H177.29v10.16h10.15Zm12.28,0H189.56v10.16h10.16Zm12.27,5q-2-2.42-4-5h-6.14v10.16H212Zm4.53,5.18c-.8-.89-1.61-1.75-2.41-2.66v2.66Zm93.68-10.16h-2.9a111.89,111.89,0,0,1-7.26,8.7v1.46H310.2Zm12.27,0H312.31v10.16h10.16Zm12.28,0H324.59v10.16h10.16Zm12.27,0H336.86v10.16H347Zm12.28,0H349.14v10.16H359.3Zm12.27,0H361.41v10.16H369q1.32-2.26,2.61-4.61Zm2.12,0v1.68c.29-.55.57-1.13.86-1.68ZM150.62,338.82h-5.05q2.44,4,5.05,8ZM152.74,349h10.15V338.82H152.74Zm22.43-10.15H165V349h10.16Zm12.27,0H177.29V349h10.15Zm12.28,0H189.56V349h10.16Zm12.27,0H201.84V349H212Zm12.28,5.77c-1.94-1.84-3.87-3.75-5.79-5.77h-4.37V349h10.16Zm4.82,4.38c-.9-.78-1.8-1.56-2.7-2.39V349Zm56.56-.23-.3.23h.3Zm2.11-1.7V349h10.16V338.82h-1.29C293.82,341.66,290.87,344.41,287.76,347Zm22.44-8.22H300V349H310.2Zm12.27,0H312.31V349h10.16Zm12.28,0H324.59V349h10.16Zm12.27,0H336.86V349H347Zm12.28,0H349.14V349H359.3Zm2.11,0v10q3.18-4.78,6.31-10ZM162.89,361.28V351.12h-9.35q3.57,5.16,7.46,10.16Zm2.12,0h10.16V351.12H165Zm22.43-10.16H177.29v10.16h10.15Zm12.28,0H189.56v10.16h10.16Zm12.27,0H201.84v10.16H212Zm12.28,0H214.11v10.16h10.16ZM236.54,355c-1.64-1.23-3.29-2.51-4.95-3.88h-5.2v10.16h10.15Zm2.12,6.28h7.2c-2.37-1.43-4.78-3-7.2-4.74Zm34.71-3.51c-1.91,1.24-3.86,2.37-5.81,3.51h5.81Zm12.28-6.65h-3q-3.51,2.7-7.17,5.17v5h10.16Zm12.27,0H287.76v10.16h10.16Zm12.28,0H300v10.16H310.2Zm12.27,0H312.31v10.16h10.16Zm12.28,0H324.59v10.16h10.16Zm12.27,0H336.86v10.16H347Zm12.28,0H349.14v10.16h3.34c.43-.55.88-1.09,1.31-1.65,1.83-2.4,3.67-5,5.51-7.64ZM162.89,363.43h-.15l.15.19Zm12.28,10.16V363.43H165v2.81q3.09,3.72,6.4,7.35Zm12.27-10.16H177.29v10.16h10.15Zm12.28,0H189.56v10.16h10.16Zm12.27,0H201.84v10.16H212Zm12.28,0H214.11v10.16h10.16Zm12.27,0H226.39v10.16h10.15Zm12.28,0H238.66v10.16h10.16Zm12.28,1.38c-1.42.72-2.82,1.5-4.23,2.17-1.94-.83-3.93-1.8-5.93-2.85v9.46H261.1Zm12.27-1.38h-9.58c-.19.11-.39.19-.58.3v9.86h10.16Zm12.28,0H275.49v10.16h10.16Zm12.27,0H287.76v10.16h10.16Zm12.28,0H300v10.16H310.2Zm12.27,0H312.31v10.16h10.16Zm12.28,0H324.59v10.16h10.16Zm12.27,0H336.86v10.16h5.24q2.5-2.76,4.92-5.61Zm2.12,0v2.06c.55-.68,1.08-1.37,1.63-2.06Zm-174,12.31h-1.83c.59.63,1.23,1.24,1.83,1.86Zm8.46,10.16h3.81V375.74H177.29v4Q180.37,382.88,183.63,385.9Zm16.09-10.16H189.56V385.9h10.16Zm12.27,0H201.84V385.9H212Zm12.28,0H214.11V385.9h10.16Zm12.27,0H226.39V385.9h10.15Zm12.28,0H238.66V385.9h10.16Zm12.28,0H250.94V385.9H261.1Zm12.27,0H263.21V385.9h10.16Zm12.28,0H275.49V385.9h10.16Zm12.27,0H287.76V385.9h10.16Zm12.28,0H300V385.9H310.2Zm12.27,0H312.31V385.9h10.16Zm12.28,0H324.59V385.9H330c1.61-1.51,3.21-3,4.78-4.6Zm2.11,0v3.41c1.1-1.13,2.19-2.26,3.27-3.41ZM187.44,388.05H186c.51.45,1,.93,1.49,1.38Zm12.28,0H189.56v3.17c2.77,2.38,5.64,4.7,8.61,7h1.55Zm12.27,0H201.84v10.16H212Zm12.28,0H214.11v10.16h10.16Zm12.27,0H226.39v10.16h10.15Zm12.28,0H238.66v10.16h10.16Zm12.28,0H250.94v10.16H261.1Zm12.27,0H263.21v10.16h10.16Zm12.28,0H275.49v10.16h10.16Zm12.27,0H287.76v10.16h10.16Zm12.28,0H300v10.16H310.2Zm12.27,0H312.31v10.16h3.31c2.32-1.82,4.61-3.67,6.85-5.58Zm2.12,0v2.72c1-.9,2.07-1.8,3.08-2.72ZM212,400.36H201.84V401c3.27,2.41,6.64,4.77,10.15,7.06Zm12.28,10.15V400.36H214.11v9.07c.58.37,1.21.72,1.8,1.08Zm12.27-10.15H226.39v10.15h10.15Zm12.28,0H238.66v10.15h10.16Zm12.28,0H250.94v10.15H261.1Zm12.27,0H263.21v10.15h10.16Zm12.28,0H275.49v10.15h10.16Zm12.27,0H287.76v10.15h10.16Zm12.28,0H300v9q5.18-3.36,10.16-7Zm2.11,0v.38l.5-.38Zm-88,12.31h-4.81c1.59.95,3.17,1.92,4.81,2.85Zm12.27,0H226.39v4q4.94,2.73,10.15,5.32Zm12.28,0H238.66v10.15h10.16Zm12.28,0H250.94v10.15H261.1Zm12.27,0H263.21v10.15h10.16Zm12.28,0H275.49v10.15h.5c3.26-1.56,6.49-3.2,9.66-4.92Zm2.11,0v4c2.34-1.3,4.66-2.65,6.94-4ZM248.82,425h-6.06c2,.92,4,1.8,6.06,2.69Zm12.28,0H250.94v3.59c1.83.77,3.61,1.58,5.49,2.33H257c1.37-.51,2.73-1.06,4.1-1.59Zm2.11,0v3.51c2.77-1.12,5.51-2.28,8.23-3.51Z"/></clipPath><linearGradient id="New_Gradient_Swatch_1" x1="88.7" y1="246.9" x2="423.33" y2="246.9" gradientUnits="userSpaceOnUse"><stop offset="0" stop-color="#3b67c6"/><stop offset="0.31" stop-color="#6e2560"/><stop offset="0.68" stop-color="#7d5137"/><stop offset="1" stop-color="#fcb745"/></linearGradient></defs><g id="Layer_3" data-name="Layer 3"><g class="cls-2"><rect class="cls-3" x="88.7" y="46.8" width="334.63" height="400.2"/></g><path class="cls-1" d="M285.65,78.19H275.49V68h10.16Zm-61.38,2.15H214.11V90.5h10.16ZM150.62,92.65H140.46v10.16h10.16Zm36.82,0H177.29v10.16h10.15Zm98.21,10.16V92.65H275.49v10.16ZM359.3,92.65H349.14v10.16H359.3ZM224.27,105H214.11v10.16h10.16Zm61.38,0H275.49v10.16h10.16ZM126.07,117.27H115.91v10.16h10.16Zm61.37,0H177.29v10.16h10.15ZM212,127.43V117.27H201.84v10.16ZM359.3,117.27H349.14v10.16H359.3Zm36.82,0H386v10.16h10.16ZM212,129.58H201.84v10.15H212Zm12.28,0H214.11v10.15h10.16Zm36.83,0H250.94v10.15H261.1Zm24.55,0H275.49v10.15h10.16Zm49.1,10.15V129.58H324.59v10.15Zm-184.13,2.16H140.46V152h10.16Zm36.82,0H177.29V152h10.15Zm36.83,0H214.11V152h10.16Zm61.38,0H275.49V152h10.16Zm49.1,0H324.59V152h10.16Zm24.55,0H349.14V152H359.3Zm36.82,0H386V152h10.16Zm-270,22.46V154.19H115.91v10.16Zm26.67-10.16v10.16h10.15V154.19Zm24.55,10.16h10.15V154.19H177.29Zm47-10.16H214.11v10.16h10.16Zm36.83,0H250.94v10.16H261.1Zm24.55,0H275.49v10.16h10.16Zm36.82,0H312.31v10.16h10.16Zm36.83,0H349.14v10.16H359.3ZM126.07,166.5H115.91v10.16h10.16Zm24.55,0H140.46v10.16h10.16Zm26.67,10.16h10.15V166.5H177.29ZM212,166.5H201.84v10.16H212Zm12.28,0H214.11v10.16h10.16Zm49.1,0H263.21v10.16h10.16Zm12.28,0H275.49v10.16h10.16Zm2.11,0v10.16h10.16V166.5Zm47,0H324.59v10.16h10.16Zm24.55,0H349.14v10.16H359.3Zm36.82,0H386v10.16h10.16Zm-245.5,12.31H140.46V189h10.16ZM177.29,189h10.15V178.81H177.29ZM212,178.81H201.84V189H212Zm12.28,0H214.11V189h10.16Zm12.27,0H226.39V189h10.15Zm36.83,0H263.21V189h10.16Zm12.28,0H275.49V189h10.16Zm36.82,0H312.31V189h10.16Zm12.28,0H324.59V189h10.16Zm24.55,0H349.14V189H359.3Zm36.82,0H386V189h10.16Zm-270,12.31H115.91v10.16h10.16Zm24.55,0H140.46v10.16h10.16Zm12.27,0H152.74v10.16h10.15Zm14.4,10.16h10.15V191.12H177.29Zm12.27,0h10.16V191.12H189.56ZM212,191.12H201.84v10.16H212Zm12.28,0H214.11v10.16h10.16Zm12.27,0H226.39v10.16h10.15Zm24.56,0H250.94v10.16H261.1Zm12.27,0H263.21v10.16h10.16Zm12.28,0H275.49v10.16h10.16Zm12.27,0H287.76v10.16h10.16Zm36.83,0H324.59v10.16h10.16Zm12.27,0H336.86v10.16H347Zm12.28,0H349.14v10.16H359.3Zm12.27,0H361.41v10.16h10.16Zm24.55,0H386v10.16h10.16Zm-270,12.31H115.91v10.15h10.16Zm24.55,0H140.46v10.15h10.16Zm12.27,0H152.74v10.15h10.15Zm12.28,0H165v10.15h10.16Zm2.12,10.15h10.15V203.43H177.29Zm22.43-10.15H189.56v10.15h10.16Zm2.12,10.15H212V203.43H201.84Zm22.43-10.15H214.11v10.15h10.16Zm12.27,0H226.39v10.15h10.15Zm12.28,0H238.66v10.15h10.16Zm2.12,10.15H261.1V203.43H250.94Zm12.27,0h10.16V203.43H263.21Zm12.28,0h10.16V203.43H275.49Zm22.43-10.15H287.76v10.15h10.16Zm24.55,0H312.31v10.15h10.16Zm12.28,0H324.59v10.15h10.16Zm12.27,0H336.86v10.15H347Zm2.12,10.15H359.3V203.43H349.14Zm22.43-10.15H361.41v10.15h10.16Zm12.28,0H373.69v10.15h10.16ZM386,213.58h10.16V203.43H386Zm-259.89,2.15H115.91v10.16h10.16Zm12.27,0H128.19v10.16h10.15Zm12.28,0H140.46v10.16h10.16Zm12.27,0H152.74v10.16h10.15ZM165,225.89h10.16V215.73H165Zm12.28,0h10.15V215.73H177.29Zm12.27,0h10.16V215.73H189.56ZM212,215.73H201.84v10.16H212Zm2.12,10.16h10.16V215.73H214.11Zm12.28,0h10.15V215.73H226.39Zm12.27,0h10.16V215.73H238.66Zm22.44-10.16H250.94v10.16H261.1Zm12.27,0H263.21v10.16h10.16Zm12.28,0H275.49v10.16h10.16Zm2.11,10.16h10.16V215.73H287.76Zm22.44,0V215.73H300v10.16Zm2.11,0h10.16V215.73H312.31Zm12.28,0h10.16V215.73H324.59Zm12.27,0H347V215.73H336.86Zm22.44-10.16H349.14v10.16H359.3Zm2.11,10.16h10.16V215.73H361.41Zm12.28,0h10.16V215.73H373.69Zm22.43-10.16H386v10.16h10.16Zm2.12,0v10.16h5c.46-3.38.84-6.77,1.22-10.16ZM113.79,238.2V228h-4.68c.47,3.46,1,6.84,1.52,10.16ZM126.07,228H115.91V238.2h10.16Zm12.27,0H128.19V238.2h10.15Zm12.28,0H140.46V238.2h10.16Zm12.27,0H152.74V238.2h10.15ZM165,238.2h7.6c-.53-4.68-.75-8.23-.84-10.16H165Zm-51.22,12.31V240.35H111q.87,5.21,1.84,10.16Zm12.28-10.16H115.91v10.16h10.16Zm12.27,0H128.19v10.16h10.15Zm12.28,0H140.46v10.16h10.16Zm12.27,0H152.74v10.16h10.15ZM165,250.51h9.45c-.69-3.73-1.21-7.15-1.59-10.16H165Zm-51.22,2.15h-.54c.18.9.36,1.81.54,2.7Zm2.12,10.16h10.16V252.66H115.91Zm22.43-10.16H128.19v10.16h10.15Zm12.28,0H140.46v10.16h10.16Zm12.27,0H152.74v10.16h10.15Zm12.28,1.62c-.12-.56-.2-1.07-.31-1.62H165v10.16h10.16Zm45.62,8.54h3.48v-3.56h-4.06C220.35,260.46,220.61,261.62,220.79,262.82Zm15.75,0v-3.56H226.39v3.56Zm12.28,0v-3.56H238.66v3.56Zm12.28,0v-3.56H250.94v3.56Zm12.27,0v-3.56H263.21v3.56Zm12.28,0v-3.56H275.49v3.56Zm12.27,0v-3.56H287.76v3.56Zm2.12,0H310.2v-3.56H300Zm22.43-3.56H312.31v3.56h10.16Zm12.28,0H324.59v3.56h10.16Zm12.27,0H336.86v3.56H347Zm12.28,0H349.14v3.56H359.3Zm12.27,0H361.41v3.56h10.16Zm12.28,0H373.69v3.56h10.16Zm12.27,0H386v3.56h10.16Zm2.12,3.56h.1c.28-1.19.58-2.37.84-3.56h-.94Zm-272.17,12.3V265H116c.83,3.48,1.68,6.88,2.57,10.15ZM138.34,265H128.19v10.15h10.15Zm12.28,0H140.46v10.15h10.16Zm12.27,0H152.74v10.15h10.15Zm12.28,0H165v10.15h10.16Zm2.12,10.15h3.36c-1.13-3.48-2.13-6.88-3-10.15h-.37Zm47,0V265h-3.13a93,93,0,0,0,2.32,10.15ZM236.54,265H226.39v10.15h10.15Zm12.28,0H238.66v10.15h10.16Zm12.28,0H250.94v10.15H261.1Zm12.27,0H263.21v10.15h10.16Zm12.28,0H275.49v10.15h10.16Zm12.27,0H287.76v10.15h10.16ZM300,275.12H310.2V265H300ZM322.47,265H312.31v10.15h10.16Zm12.28,0H324.59v10.15h10.16ZM347,265H336.86v10.15H347Zm12.28,0H349.14v10.15H359.3Zm12.27,0H361.41v10.15h10.16Zm12.28,0H373.69v10.15h10.16Zm12.27,0H386v10.15h9.19c.33-1.17.65-2.35,1-3.53Zm-270,12.31h-6.94c1,3.5,2,6.9,3,10.15h3.92Zm12.27,0H128.19v10.15h10.15Zm12.28,0H140.46v10.15h10.16Zm12.27,0H152.74v10.15h10.15Zm12.28,0H165v10.15h10.16Zm2.12,10.15h7.82q-2.09-5.16-3.76-10.15h-4.06Zm47-10.15H224l.25.69Zm2.12,6.48c.49,1.24,1,2.46,1.52,3.67h8.63V277.28H226.39Zm12.27,3.67h10.16V277.28H238.66Zm12.28,0H261.1V277.28H250.94Zm12.27,0h10.16V277.28H263.21Zm12.28,0h10.16V277.28H275.49Zm12.27,0h10.16V277.28H287.76Zm22.44-10.15H300v10.15H310.2Zm12.27,0H312.31v10.15h10.16Zm12.28,0H324.59v10.15h10.16Zm12.27,0H336.86v10.15H347Zm12.28,0H349.14v10.15H359.3Zm12.27,0H361.41v10.15h10.16Zm12.28,0H373.69v10.15h10.16Zm2.11,0v10.15h5.32q1.71-5,3.22-10.15Zm-259.89,12.3h-3.22c1.05,3.23,2.13,6.34,3.22,9.3Zm2.12,10.16h10.15V289.58H128.19Zm22.43-10.16H140.46v10.16h10.16Zm12.27,0H152.74v10.16h10.15Zm12.28,0H165v10.16h10.16ZM187.44,293c-.5-1.14-1-2.26-1.44-3.39h-8.71v10.16h10.15Zm3.22,6.77-.28-.5c-.29-.58-.54-1.16-.82-1.75v2.25Zm45.88-10.16h-7.61a92.44,92.44,0,0,0,5.55,10.16h2.06Zm2.12,10.16h10.16V289.58H238.66Zm12.28,0H261.1V289.58H250.94Zm12.27,0h10.16V289.58H263.21Zm12.28,0h10.16V289.58H275.49Zm12.27,0h10.16V289.58H287.76Zm12.28,0H310.2V289.58H300Zm22.43-10.16H312.31v10.16h10.16Zm12.28,0H324.59v10.16h10.16Zm12.27,0H336.86v10.16H347Zm12.28,0H349.14v10.16H359.3Zm12.27,0H361.41v10.16h10.16Zm12.28,0H373.69v10.16h10.16Zm2.11,0v10.16h.79q2-5,3.79-10.16ZM138.34,312.05V301.89H128.19v2.52c1.05,2.67,2.12,5.22,3.19,7.64Zm12.28-10.16H140.46v10.16h10.16Zm12.27,0H152.74v10.16h10.15Zm12.28,0H165v10.16h10.16Zm12.27,0H177.29v10.16h10.15Zm2.12,10.16h8.24c-2.05-3.25-4-6.66-6-10.16h-2.29Zm46.31-10.16c.21.32.45.62.67.93v-.93Zm2.79,3.84c1.69,2.23,3.44,4.33,5.28,6.32h4.88V301.89H238.66Zm12.28,6.32H261.1V301.89H250.94Zm12.27,0h10.16V301.89H263.21Zm12.28,0h10.16V301.89H275.49Zm12.27,0h10.16V301.89H287.76Zm12.28,0H310.2V301.89H300Zm22.43-10.16H312.31v10.16h10.16Zm12.28,0H324.59v10.16h10.16Zm12.27,0H336.86v10.16H347Zm12.28,0H349.14v10.16H359.3Zm12.27,0H361.41v10.16h10.16Zm12.28,0H373.69v10.16h7.87q1.17-2.58,2.29-5.21ZM138.34,314.2h-6c.85,1.86,1.71,3.68,2.56,5.38s1.66,3.19,2.5,4.78h.92Zm2.12,10.16h10.16V314.2H140.46Zm22.43-10.16H152.74v10.16h10.15Zm12.28,0H165v10.16h10.16Zm12.27,0H177.29v10.16h10.15Zm12.28.76c-.17-.25-.34-.5-.5-.76h-9.66v10.16h10.16Zm6.59,9.4c-1.51-2-3-4.07-4.47-6.2v6.2Zm39.61-10.16c.94.95,1.93,1.79,2.9,2.67V314.2Zm5,0v4.63c.11.09.21.21.33.3h9.83V314.2Zm12.27,0v4.93h10.16V314.2Zm12.28,0v4.93h10.16V314.2Zm12.27,0v4.93h10.16V314.2Zm22.44,8c-.48.72-.94,1.43-1.43,2.14h1.43ZM300,319.13H310.2V314.2H300Zm22.43-4.93H312.31v10.16h10.16Zm12.28,0H324.59v10.16h10.16Zm12.27,0H336.86v10.16H347Zm12.28,0H349.14v10.16H359.3Zm12.27,0H361.41v10.16h10.16Zm2.12,0v10.16h2q2.52-5,4.93-10.16ZM144.24,336.67h6.38V326.51H140.46V330C141.69,332.25,142.94,334.47,144.24,336.67Zm18.65-10.16H152.74v10.16h10.15Zm12.28,0H165v10.16h10.16Zm12.27,0H177.29v10.16h10.15Zm12.28,0H189.56v10.16h10.16Zm12.27,5q-2-2.42-4-5h-6.14v10.16H212Zm4.53,5.18c-.8-.89-1.61-1.75-2.41-2.66v2.66Zm93.68-10.16h-2.9a111.89,111.89,0,0,1-7.26,8.7v1.46H310.2Zm12.27,0H312.31v10.16h10.16Zm12.28,0H324.59v10.16h10.16Zm12.27,0H336.86v10.16H347Zm12.28,0H349.14v10.16H359.3Zm12.27,0H361.41v10.16H369q1.32-2.26,2.61-4.61Zm2.12,0v1.68c.29-.55.57-1.13.86-1.68ZM150.62,338.82h-5.05q2.44,4,5.05,8ZM152.74,349h10.15V338.82H152.74Zm22.43-10.15H165V349h10.16Zm12.27,0H177.29V349h10.15Zm12.28,0H189.56V349h10.16Zm12.27,0H201.84V349H212Zm12.28,5.77c-1.94-1.84-3.87-3.75-5.79-5.77h-4.37V349h10.16Zm4.82,4.38c-.9-.78-1.8-1.56-2.7-2.39V349Zm56.56-.23-.3.23h.3Zm2.11-1.7V349h10.16V338.82h-1.29C293.82,341.66,290.87,344.41,287.76,347Zm22.44-8.22H300V349H310.2Zm12.27,0H312.31V349h10.16Zm12.28,0H324.59V349h10.16Zm12.27,0H336.86V349H347Zm12.28,0H349.14V349H359.3Zm2.11,0v10q3.18-4.78,6.31-10ZM162.89,361.28V351.12h-9.35q3.57,5.16,7.46,10.16Zm2.12,0h10.16V351.12H165Zm22.43-10.16H177.29v10.16h10.15Zm12.28,0H189.56v10.16h10.16Zm12.27,0H201.84v10.16H212Zm12.28,0H214.11v10.16h10.16ZM236.54,355c-1.64-1.23-3.29-2.51-4.95-3.88h-5.2v10.16h10.15Zm2.12,6.28h7.2c-2.37-1.43-4.78-3-7.2-4.74Zm34.71-3.51c-1.91,1.24-3.86,2.37-5.81,3.51h5.81Zm12.28-6.65h-3q-3.51,2.7-7.17,5.17v5h10.16Zm12.27,0H287.76v10.16h10.16Zm12.28,0H300v10.16H310.2Zm12.27,0H312.31v10.16h10.16Zm12.28,0H324.59v10.16h10.16Zm12.27,0H336.86v10.16H347Zm12.28,0H349.14v10.16h3.34c.43-.55.88-1.09,1.31-1.65,1.83-2.4,3.67-5,5.51-7.64ZM162.89,363.43h-.15l.15.19Zm12.28,10.16V363.43H165v2.81q3.09,3.72,6.4,7.35Zm12.27-10.16H177.29v10.16h10.15Zm12.28,0H189.56v10.16h10.16Zm12.27,0H201.84v10.16H212Zm12.28,0H214.11v10.16h10.16Zm12.27,0H226.39v10.16h10.15Zm12.28,0H238.66v10.16h10.16Zm12.28,1.38c-1.42.72-2.82,1.5-4.23,2.17-1.94-.83-3.93-1.8-5.93-2.85v9.46H261.1Zm12.27-1.38h-9.58c-.19.11-.39.19-.58.3v9.86h10.16Zm12.28,0H275.49v10.16h10.16Zm12.27,0H287.76v10.16h10.16Zm12.28,0H300v10.16H310.2Zm12.27,0H312.31v10.16h10.16Zm12.28,0H324.59v10.16h10.16Zm12.27,0H336.86v10.16h5.24q2.5-2.76,4.92-5.61Zm2.12,0v2.06c.55-.68,1.08-1.37,1.63-2.06Zm-174,12.31h-1.83c.59.63,1.23,1.24,1.83,1.86Zm8.46,10.16h3.81V375.74H177.29v4Q180.37,382.88,183.63,385.9Zm16.09-10.16H189.56V385.9h10.16Zm12.27,0H201.84V385.9H212Zm12.28,0H214.11V385.9h10.16Zm12.27,0H226.39V385.9h10.15Zm12.28,0H238.66V385.9h10.16Zm12.28,0H250.94V385.9H261.1Zm12.27,0H263.21V385.9h10.16Zm12.28,0H275.49V385.9h10.16Zm12.27,0H287.76V385.9h10.16Zm12.28,0H300V385.9H310.2Zm12.27,0H312.31V385.9h10.16Zm12.28,0H324.59V385.9H330c1.61-1.51,3.21-3,4.78-4.6Zm2.11,0v3.41c1.1-1.13,2.19-2.26,3.27-3.41ZM187.44,388.05H186c.51.45,1,.93,1.49,1.38Zm12.28,0H189.56v3.17c2.77,2.38,5.64,4.7,8.61,7h1.55Zm12.27,0H201.84v10.16H212Zm12.28,0H214.11v10.16h10.16Zm12.27,0H226.39v10.16h10.15Zm12.28,0H238.66v10.16h10.16Zm12.28,0H250.94v10.16H261.1Zm12.27,0H263.21v10.16h10.16Zm12.28,0H275.49v10.16h10.16Zm12.27,0H287.76v10.16h10.16Zm12.28,0H300v10.16H310.2Zm12.27,0H312.31v10.16h3.31c2.32-1.82,4.61-3.67,6.85-5.58Zm2.12,0v2.72c1-.9,2.07-1.8,3.08-2.72ZM212,400.36H201.84V401c3.27,2.41,6.64,4.77,10.15,7.06Zm12.28,10.15V400.36H214.11v9.07c.58.37,1.21.72,1.8,1.08Zm12.27-10.15H226.39v10.15h10.15Zm12.28,0H238.66v10.15h10.16Zm12.28,0H250.94v10.15H261.1Zm12.27,0H263.21v10.15h10.16Zm12.28,0H275.49v10.15h10.16Zm12.27,0H287.76v10.15h10.16Zm12.28,0H300v9q5.18-3.36,10.16-7Zm2.11,0v.38l.5-.38Zm-88,12.31h-4.81c1.59.95,3.17,1.92,4.81,2.85Zm12.27,0H226.39v4q4.94,2.73,10.15,5.32Zm12.28,0H238.66v10.15h10.16Zm12.28,0H250.94v10.15H261.1Zm12.27,0H263.21v10.15h10.16Zm12.28,0H275.49v10.15h.5c3.26-1.56,6.49-3.2,9.66-4.92Zm2.11,0v4c2.34-1.3,4.66-2.65,6.94-4ZM248.82,425h-6.06c2,.92,4,1.8,6.06,2.69Zm12.28,0H250.94v3.59c1.83.77,3.61,1.58,5.49,2.33H257c1.37-.51,2.73-1.06,4.1-1.59Zm2.11,0v3.51c2.77-1.12,5.51-2.28,8.23-3.51Z"/></g></svg>